<svg xmlns="http://www.w3.org/2000/svg" viewBox="0 0 24 24" fill="none">
  <path d="M12 22C17.5228 22 22 17.5228 22 12C22 6.47715 17.5228 2 12 2C6.47715 2 2 6.47715 2 12C2 17.5228 6.47715 22 12 22Z" fill="#24292F"/>
  <path d="M11.8661 5.2832C10.1464 5.2832 8.62583 5.37353 7.40137 5.6839C6.16785 5.99427 5.2793 6.55274 5.2793 7.55469C5.2793 8.15761 5.56898 8.60609 6.00064 8.93555C6.42324 9.25595 7.02211 9.48438 7.83301 9.48438C8.27374 9.48438 8.62583 9.60352 8.85425 9.80371C9.08268 10.0039 9.23047 10.3201 9.23047 10.7969C9.23047 11.3193 9.10221 11.7153 8.91108 12.0078C8.71089 12.3092 8.42122 12.4912 8.06006 12.5371C8.06006 12.5371 8.51678 13.1943 9.83203 13.1943C10.4987 13.1943 11.0114 12.9121 11.3586 12.4912C11.7015 12.0703 11.9121 11.457 11.9121 10.7695C11.9121 10.2197 11.8296 9.63952 11.7288 9.24609C12.7353 9.18849 13.9415 9.11719 14.7158 9.11719C15.9944 9.11719 17.1093 9.33203 17.8379 9.81055C18.5665 10.2891 18.9551 10.9902 18.9551 12.0967C18.9551 13.2024 18.4326 14.2318 17.5304 15.0152C16.6373 15.7986 15.2666 16.3115 13.6114 16.3115C13.4617 16.3115 13.3212 16.3069 13.1807 16.2979C12.8979 16.6224 12.765 16.9834 12.765 17.3535C12.765 17.554 12.7879 17.7354 12.8521 17.9033C13.1165 17.9355 13.3624 17.9541 13.6114 17.9541C15.7434 17.9541 17.5167 17.2713 18.7633 16.1061C20.01 14.941 20.7295 13.315 20.7295 11.6045C20.7295 10.0039 20.0648 8.63525 18.9412 7.71191C17.8267 6.7886 16.222 6.35742 14.4658 6.35742C13.3647 6.35742 11.8661 6.48567 10.6416 6.5752C10.5958 6.1636 10.5729 5.72607 10.5729 5.2832H11.8661Z" fill="white"/>
  <path d="M7.05811 13.0813C5.38748 13.0813 4.39063 14.078 4.39063 15.7486C4.39063 17.4193 5.38748 18.416 7.05811 18.416C8.72873 18.416 9.72559 17.4193 9.72559 15.7486C9.72559 14.078 8.72873 13.0813 7.05811 13.0813Z" fill="white"/>
</svg> 