<svg width="24" height="24" viewBox="0 0 24 24" fill="none" xmlns="http://www.w3.org/2000/svg">
  <path d="M22.2819 9.8211a5.9847 5.9847 0 0 0-.5157-4.9108 6.0462 6.0462 0 0 0-6.5098-2.9A6.0651 6.0651 0 0 0 4.9807 4.1818a5.9847 5.9847 0 0 0-3.9977 2.9 6.0462 6.0462 0 0 0 .7427 7.0966 5.98 5.98 0 0 0 .511 4.9107 6.051 6.051 0 0 0 6.5146 2.9001A5.9847 5.9847 0 0 0 13.2599 24a6.051 6.051 0 0 0 6.0572-4.1819 5.9895 5.9895 0 0 0 3.9977-2.9001 6.0556 6.0556 0 0 0-.7328-7.0969h-.0001ZM19.4029 16.5341a4.453 4.453 0 0 1-2.8531 1.0195 4.4844 4.4844 0 0 1-4.2005-2.6094L9.663 9.8197a.3465.3465 0 0 0-.6338-.0047l-2.6867 5.1135a4.485 4.485 0 0 1-3.0122 2.6462 4.5057 4.5057 0 0 1-5.0124-2.0537 4.5312 4.5312 0 0 1 .5265-5.6136 4.485 4.485 0 0 1 3.0122-2.6462 4.5057 4.5057 0 0 1 5.0124 2.0537l.3806.7254a.3642.3642 0 0 0 .6338.0047l2.6867-5.1135a4.485 4.485 0 0 1 3.0122-2.6462 4.5057 4.5057 0 0 1 5.0124 2.0537 4.5312 4.5312 0 0 1-.5265 5.6136 4.485 4.485 0 0 1-3.0122 2.6462 4.5057 4.5057 0 0 1-5.0124-2.0537l-.3806-.7254a.3593.3593 0 0 0-.6338-.0047L7.3067 13.349a.3548.3548 0 0 0 0 .3641l.3948.7533a4.5312 4.5312 0 0 1-.5265 5.6136 4.485 4.485 0 0 1-3.0122 2.6462 4.5057 4.5057 0 0 1-5.0124-2.0537 4.5312 4.5312 0 0 1 .5265-5.6136 4.4888 4.4888 0 0 1 2.8531-1.0195 4.4844 4.4844 0 0 1 4.2005 2.6095l2.6819 5.1275a.3466.3466 0 0 0 .6338.0048l2.6818-5.1275a4.485 4.485 0 0 1 3.0122-2.6463 4.5057 4.5057 0 0 1 5.0125 2.0537 4.5312 4.5312 0 0 1-.5266 5.6137Z" fill="#000000"/>
</svg> 