<svg xmlns="http://www.w3.org/2000/svg" viewBox="0 0 25.6 25.6">
  <path d="M25.1 22.8c-.2-1-.5-1.5-1.9-1.3l-4.4.5-.1-.2c3.4-2.1 5.7-5.8 5.7-10.1C24.4 5.2 19 0 12.5 0 5.9 0 .5 5.2.5 11.7c0 4.3 2.2 8 5.7 10.1l-.1.2-4.4-.4C0 21.4-.3 21.9.3 23s1.8 1.8 4 1.5l.9-.2c2.1-.4 5-.9 8-.9 3 0 5.8.5 8 .9l.9.2c2.1.3 3.4-.4 4-1.5.7-1.1.5-1.8.3-2.2zm-12.6-22c6 0 10.9 4.5 10.9 10.9s-4.9 10.9-10.9 10.9S1.6 18.2 1.6 11.7 6.5.8 12.5.8z" fill="#231f20"/>
  <path d="M20 20.9l.5-2.7-.3-.3-4.3 3.4-3.5.1-3.4-.1-4.3-3.4-.3.3.5 2.7 4.1 1.9h6.9l4.1-1.9z" fill="#699bd8"/>
  <path d="M12.5 15.1l3.7-2.5h-7.5l3.8 2.5z" fill="#699bd8"/>
  <path d="M12.5 14.8c-1.1 0-1.9-.9-1.9-1.9 0-1.1.9-1.9 1.9-1.9 1.1 0 1.9.9 1.9 1.9 0 1-.8 1.9-1.9 1.9z" fill="#699bd8"/>
  <path d="M19.5 7.6l.5-2.3c.1-.5-.1-.8-.5-.9L17 3.9h-9l-2.6.5c-.4.1-.6.4-.5.9l.5 2.3 4-1.4h6.1l4 1.4z" fill="#699bd8"/>
  <path d="M8.7 3.5c0 .3-.3.6-.6.6s-.6-.3-.6-.6c0-.2.1-.4.3-.5l.9-.3.3-.1c0 .1-.1.2-.1.3l-.2.6z" fill="#231f20"/>
  <path d="M15.7 6.9c0 .3-.2.5-.5.5s-.5-.2-.5-.5.2-.5.5-.5.5.2.5.5zM14.7 7.4c-.3 0-.5.2-.5.5s.2.5.5.5.5-.2.5-.5-.2-.5-.5-.5zM15.7 8.9c-.3 0-.5.2-.5.5s.2.5.5.5.5-.2.5-.5-.2-.5-.5-.5zM16.7 8.4c-.3 0-.5.2-.5.5s.2.5.5.5.5-.2.5-.5-.2-.5-.5-.5zM16.7 9.9c-.3 0-.5.2-.5.5s.2.5.5.5.5-.2.5-.5-.2-.5-.5-.5zM10.1 6.9c0 .3-.2.5-.5.5s-.5-.2-.5-.5.2-.5.5-.5.5.2.5.5zM9.1 7.4c-.3 0-.5.2-.5.5s.2.5.5.5.5-.2.5-.5-.2-.5-.5-.5zM10.1 8.9c-.3 0-.5.2-.5.5s.2.5.5.5.5-.2.5-.5-.2-.5-.5-.5zM11.1 8.4c-.3 0-.5.2-.5.5s.2.5.5.5.5-.2.5-.5-.2-.5-.5-.5zM11.1 9.9c-.3 0-.5.2-.5.5s.2.5.5.5.5-.2.5-.5-.2-.5-.5-.5z" fill="#231f20"/>
</svg> 